<mxfile host="app.diagrams.net" agent="Mozilla/5.0 (Windows NT 10.0; Win64; x64) AppleWebKit/537.36 (KHTML, like Gecko) Chrome/131.0.0.0 Safari/537.36" version="25.0.3">
  <diagram name="第 1 页" id="x79DfxnwyBFoaVYWa-ME">
    <mxGraphModel dx="7485" dy="1930" grid="1" gridSize="10" guides="1" tooltips="1" connect="1" arrows="1" fold="1" page="1" pageScale="1" pageWidth="3300" pageHeight="4681" math="0" shadow="0">
      <root>
        <mxCell id="0" />
        <mxCell id="1" parent="0" />
        <mxCell id="AN60eJWAK5SgZAsSh-RL-7" value="顯示" style="ellipse;shape=umlControl;whiteSpace=wrap;html=1;" parent="1" vertex="1">
          <mxGeometry x="425" y="10" width="70" height="80" as="geometry" />
        </mxCell>
        <mxCell id="AN60eJWAK5SgZAsSh-RL-8" value="行程資料庫" style="ellipse;shape=umlEntity;whiteSpace=wrap;html=1;" parent="1" vertex="1">
          <mxGeometry x="875" y="10" width="80" height="80" as="geometry" />
        </mxCell>
        <mxCell id="AN60eJWAK5SgZAsSh-RL-10" value="Actor" style="shape=umlActor;verticalLabelPosition=bottom;verticalAlign=top;html=1;" parent="1" vertex="1">
          <mxGeometry x="70" y="50" width="30" height="60" as="geometry" />
        </mxCell>
        <mxCell id="AN60eJWAK5SgZAsSh-RL-11" value="使用者ui" style="shape=umlLifeline;perimeter=lifelinePerimeter;whiteSpace=wrap;html=1;container=1;dropTarget=0;collapsible=0;recursiveResize=0;outlineConnect=0;portConstraint=eastwest;newEdgeStyle={&quot;curved&quot;:0,&quot;rounded&quot;:0};size=50;" parent="1" vertex="1">
          <mxGeometry x="190" y="40" width="120" height="850" as="geometry" />
        </mxCell>
        <mxCell id="AN60eJWAK5SgZAsSh-RL-13" value="" style="html=1;points=[[0,0,0,0,5],[0,1,0,0,-5],[1,0,0,0,5],[1,1,0,0,-5]];perimeter=orthogonalPerimeter;outlineConnect=0;targetShapes=umlLifeline;portConstraint=eastwest;newEdgeStyle={&quot;curved&quot;:0,&quot;rounded&quot;:0};fillColor=#808080;" parent="AN60eJWAK5SgZAsSh-RL-11" vertex="1">
          <mxGeometry x="55" y="100" width="10" height="230" as="geometry" />
        </mxCell>
        <mxCell id="AN60eJWAK5SgZAsSh-RL-14" value="&lt;font style=&quot;vertical-align: inherit;&quot;&gt;&lt;font style=&quot;vertical-align: inherit;&quot;&gt;Opt&lt;/font&gt;&lt;/font&gt;" style="shape=umlFrame;whiteSpace=wrap;html=1;pointerEvents=0;recursiveResize=0;container=1;collapsible=0;width=170;" parent="1" vertex="1">
          <mxGeometry x="250" y="140" width="680" height="240" as="geometry" />
        </mxCell>
        <mxCell id="AN60eJWAK5SgZAsSh-RL-15" value="&lt;font style=&quot;vertical-align: inherit;&quot;&gt;&lt;font style=&quot;vertical-align: inherit;&quot;&gt;[查看月曆]&lt;/font&gt;&lt;/font&gt;" style="text;html=1;" parent="AN60eJWAK5SgZAsSh-RL-14" vertex="1">
          <mxGeometry width="60" height="20" relative="1" as="geometry">
            <mxPoint y="30" as="offset" />
          </mxGeometry>
        </mxCell>
        <mxCell id="LllymJ43TnrRqsEVC5Kz-8" value="&lt;font style=&quot;vertical-align: inherit;&quot;&gt;&lt;font style=&quot;vertical-align: inherit;&quot;&gt;[查看日曆]&lt;/font&gt;&lt;/font&gt;" style="text;html=1;" parent="AN60eJWAK5SgZAsSh-RL-14" vertex="1">
          <mxGeometry y="130" width="60" height="20" as="geometry" />
        </mxCell>
        <mxCell id="AN60eJWAK5SgZAsSh-RL-20" value="&lt;font style=&quot;vertical-align: inherit;&quot;&gt;&lt;font style=&quot;vertical-align: inherit;&quot;&gt;&lt;font style=&quot;vertical-align: inherit;&quot;&gt;&lt;font style=&quot;vertical-align: inherit;&quot;&gt;3.顯示月曆()&lt;/font&gt;&lt;/font&gt;&lt;/font&gt;&lt;/font&gt;" style="html=1;verticalAlign=bottom;labelBackgroundColor=none;endArrow=open;endFill=0;dashed=1;rounded=0;" parent="AN60eJWAK5SgZAsSh-RL-14" edge="1">
          <mxGeometry x="-0.0001" width="160" relative="1" as="geometry">
            <mxPoint x="201.51" y="109.99999999999994" as="sourcePoint" />
            <mxPoint x="10" y="110" as="targetPoint" />
            <mxPoint as="offset" />
          </mxGeometry>
        </mxCell>
        <mxCell id="AN60eJWAK5SgZAsSh-RL-27" value="" style="html=1;verticalAlign=bottom;labelBackgroundColor=none;endArrow=open;endFill=0;rounded=0;" parent="AN60eJWAK5SgZAsSh-RL-14" edge="1">
          <mxGeometry width="160" relative="1" as="geometry">
            <mxPoint y="160" as="sourcePoint" />
            <mxPoint x="200" y="160" as="targetPoint" />
            <Array as="points">
              <mxPoint x="95" y="160" />
            </Array>
          </mxGeometry>
        </mxCell>
        <mxCell id="LllymJ43TnrRqsEVC5Kz-6" value="4.查看日曆()" style="edgeLabel;html=1;align=center;verticalAlign=middle;resizable=0;points=[];" parent="AN60eJWAK5SgZAsSh-RL-27" vertex="1" connectable="0">
          <mxGeometry x="0.1105" y="1" relative="1" as="geometry">
            <mxPoint x="-8" y="-9" as="offset" />
          </mxGeometry>
        </mxCell>
        <mxCell id="AN60eJWAK5SgZAsSh-RL-19" value="&lt;font style=&quot;vertical-align: inherit;&quot;&gt;&lt;font style=&quot;vertical-align: inherit;&quot;&gt;&lt;font style=&quot;vertical-align: inherit;&quot;&gt;&lt;font style=&quot;vertical-align: inherit;&quot;&gt;&lt;font style=&quot;vertical-align: inherit;&quot;&gt;&lt;font style=&quot;vertical-align: inherit;&quot;&gt;&lt;font style=&quot;vertical-align: inherit;&quot;&gt;&lt;font style=&quot;vertical-align: inherit;&quot;&gt;&lt;font style=&quot;vertical-align: inherit;&quot;&gt;&lt;font style=&quot;vertical-align: inherit;&quot;&gt;5. 顯示日&lt;/font&gt;&lt;/font&gt;&lt;/font&gt;&lt;/font&gt;&lt;/font&gt;&lt;/font&gt;&lt;/font&gt;&lt;/font&gt;&lt;/font&gt;&lt;/font&gt;&lt;span style=&quot;background-color: initial;&quot;&gt;&lt;font style=&quot;vertical-align: inherit;&quot;&gt;&lt;font style=&quot;vertical-align: inherit;&quot;&gt;曆()&lt;/font&gt;&lt;/font&gt;&lt;/span&gt;" style="html=1;verticalAlign=bottom;labelBackgroundColor=none;endArrow=open;endFill=0;dashed=1;rounded=0;exitX=0;exitY=1;exitDx=0;exitDy=-5;exitPerimeter=0;" parent="AN60eJWAK5SgZAsSh-RL-14" target="AN60eJWAK5SgZAsSh-RL-13" edge="1">
          <mxGeometry x="0.004" width="160" relative="1" as="geometry">
            <mxPoint x="200" y="230" as="sourcePoint" />
            <mxPoint x="-5" y="230" as="targetPoint" />
            <mxPoint as="offset" />
          </mxGeometry>
        </mxCell>
        <mxCell id="AN60eJWAK5SgZAsSh-RL-21" value="" style="endArrow=open;startArrow=none;endFill=0;startFill=0;endSize=8;html=1;verticalAlign=bottom;labelBackgroundColor=none;strokeWidth=1;rounded=0;" parent="1" target="AN60eJWAK5SgZAsSh-RL-13" edge="1">
          <mxGeometry width="160" relative="1" as="geometry">
            <mxPoint x="80" y="140" as="sourcePoint" />
            <mxPoint x="225" y="140" as="targetPoint" />
          </mxGeometry>
        </mxCell>
        <mxCell id="AN60eJWAK5SgZAsSh-RL-22" value="&lt;font style=&quot;vertical-align: inherit;&quot;&gt;&lt;font style=&quot;vertical-align: inherit;&quot;&gt;&lt;font style=&quot;vertical-align: inherit;&quot;&gt;&lt;font style=&quot;vertical-align: inherit;&quot;&gt;&lt;font style=&quot;vertical-align: inherit;&quot;&gt;&lt;font style=&quot;vertical-align: inherit;&quot;&gt;1.選擇查看月曆()&lt;/font&gt;&lt;/font&gt;&lt;/font&gt;&lt;/font&gt;&lt;/font&gt;&lt;/font&gt;" style="edgeLabel;html=1;align=center;verticalAlign=middle;resizable=0;points=[];" parent="AN60eJWAK5SgZAsSh-RL-21" vertex="1" connectable="0">
          <mxGeometry x="0.084" y="9" relative="1" as="geometry">
            <mxPoint x="1" as="offset" />
          </mxGeometry>
        </mxCell>
        <mxCell id="AN60eJWAK5SgZAsSh-RL-26" value="" style="endArrow=none;startArrow=none;endFill=0;startFill=0;endSize=8;html=1;verticalAlign=bottom;labelBackgroundColor=none;strokeWidth=1;rounded=0;exitX=0.333;exitY=1;exitDx=0;exitDy=0;exitPerimeter=0;dashed=1;" parent="1" source="AN60eJWAK5SgZAsSh-RL-10" edge="1">
          <mxGeometry width="160" relative="1" as="geometry">
            <mxPoint x="70" y="210" as="sourcePoint" />
            <mxPoint x="80" y="880.7999877929688" as="targetPoint" />
          </mxGeometry>
        </mxCell>
        <mxCell id="AN60eJWAK5SgZAsSh-RL-28" value="" style="endArrow=none;startArrow=none;endFill=0;startFill=0;endSize=8;html=1;verticalAlign=bottom;labelBackgroundColor=none;strokeWidth=1;rounded=0;dashed=1;" parent="1" edge="1">
          <mxGeometry width="160" relative="1" as="geometry">
            <mxPoint x="915" y="345" as="sourcePoint" />
            <mxPoint x="915" y="910.800048828125" as="targetPoint" />
          </mxGeometry>
        </mxCell>
        <mxCell id="AN60eJWAK5SgZAsSh-RL-35" value="&lt;font style=&quot;vertical-align: inherit;&quot;&gt;&lt;font style=&quot;vertical-align: inherit;&quot;&gt;&lt;font style=&quot;vertical-align: inherit;&quot;&gt;&lt;font style=&quot;vertical-align: inherit;&quot;&gt;&lt;font style=&quot;vertical-align: inherit;&quot;&gt;&lt;font style=&quot;vertical-align: inherit;&quot;&gt;&lt;font style=&quot;vertical-align: inherit;&quot;&gt;&lt;font style=&quot;vertical-align: inherit;&quot;&gt;&lt;font style=&quot;vertical-align: inherit;&quot;&gt;&lt;font style=&quot;vertical-align: inherit;&quot;&gt;2.1.讀取資料()&lt;/font&gt;&lt;/font&gt;&lt;/font&gt;&lt;/font&gt;&lt;/font&gt;&lt;/font&gt;&lt;/font&gt;&lt;/font&gt;&lt;/font&gt;&lt;/font&gt;" style="html=1;verticalAlign=bottom;labelBackgroundColor=none;endArrow=open;endFill=0;rounded=0;" parent="1" source="AN60eJWAK5SgZAsSh-RL-12" edge="1">
          <mxGeometry x="-0.0004" width="160" relative="1" as="geometry">
            <mxPoint x="610" y="220" as="sourcePoint" />
            <mxPoint x="910" y="210" as="targetPoint" />
            <mxPoint as="offset" />
          </mxGeometry>
        </mxCell>
        <mxCell id="AN60eJWAK5SgZAsSh-RL-36" value="&lt;font style=&quot;vertical-align: inherit;&quot;&gt;&lt;font style=&quot;vertical-align: inherit;&quot;&gt;&lt;font style=&quot;vertical-align: inherit;&quot;&gt;&lt;font style=&quot;vertical-align: inherit;&quot;&gt;2.2.顯示資料()&lt;/font&gt;&lt;/font&gt;&lt;/font&gt;&lt;/font&gt;" style="html=1;verticalAlign=bottom;labelBackgroundColor=none;endArrow=open;endFill=0;dashed=1;rounded=0;exitX=0;exitY=0.214;exitDx=0;exitDy=0;exitPerimeter=0;" parent="1" source="AN60eJWAK5SgZAsSh-RL-38" target="AN60eJWAK5SgZAsSh-RL-12" edge="1">
          <mxGeometry x="-0.0001" width="160" relative="1" as="geometry">
            <mxPoint x="812" y="240" as="sourcePoint" />
            <mxPoint x="465" y="240" as="targetPoint" />
            <mxPoint as="offset" />
          </mxGeometry>
        </mxCell>
        <mxCell id="AN60eJWAK5SgZAsSh-RL-39" value="" style="endArrow=none;startArrow=none;endFill=0;startFill=0;endSize=8;html=1;verticalAlign=bottom;labelBackgroundColor=none;strokeWidth=1;rounded=0;exitX=0.5;exitY=1;exitDx=0;exitDy=0;dashed=1;" parent="1" source="AN60eJWAK5SgZAsSh-RL-8" target="AN60eJWAK5SgZAsSh-RL-38" edge="1">
          <mxGeometry width="160" relative="1" as="geometry">
            <mxPoint x="816.5" y="120" as="sourcePoint" />
            <mxPoint x="816.5" y="501.3333435058594" as="targetPoint" />
          </mxGeometry>
        </mxCell>
        <mxCell id="AN60eJWAK5SgZAsSh-RL-38" value="" style="html=1;points=[[0,0,0,0,5],[0,1,0,0,-5],[1,0,0,0,5],[1,1,0,0,-5]];perimeter=orthogonalPerimeter;outlineConnect=0;targetShapes=umlLifeline;portConstraint=eastwest;newEdgeStyle={&quot;curved&quot;:0,&quot;rounded&quot;:0};fillColor=#808080;" parent="1" vertex="1">
          <mxGeometry x="910" y="210" width="10" height="140" as="geometry" />
        </mxCell>
        <mxCell id="AN60eJWAK5SgZAsSh-RL-43" value="&lt;font style=&quot;vertical-align: inherit;&quot;&gt;&lt;font style=&quot;vertical-align: inherit;&quot;&gt;&lt;font style=&quot;vertical-align: inherit;&quot;&gt;&lt;font style=&quot;vertical-align: inherit;&quot;&gt;4.2.顯示資料()&lt;/font&gt;&lt;/font&gt;&lt;/font&gt;&lt;/font&gt;" style="html=1;verticalAlign=bottom;labelBackgroundColor=none;endArrow=open;endFill=0;dashed=1;rounded=0;exitX=0;exitY=1;exitDx=0;exitDy=-5;exitPerimeter=0;" parent="1" source="AN60eJWAK5SgZAsSh-RL-38" target="AN60eJWAK5SgZAsSh-RL-12" edge="1">
          <mxGeometry x="-0.0001" width="160" relative="1" as="geometry">
            <mxPoint x="800" y="349" as="sourcePoint" />
            <mxPoint x="460" y="349.43" as="targetPoint" />
            <mxPoint as="offset" />
          </mxGeometry>
        </mxCell>
        <mxCell id="AN60eJWAK5SgZAsSh-RL-32" value="" style="endArrow=none;startArrow=none;endFill=0;startFill=0;endSize=8;html=1;verticalAlign=bottom;labelBackgroundColor=none;strokeWidth=1;rounded=0;dashed=1;" parent="1" source="09P6XsZRbIy3q7f4OAyT-18" edge="1">
          <mxGeometry width="160" relative="1" as="geometry">
            <mxPoint x="450.00438090849326" y="74.85585496063085" as="sourcePoint" />
            <mxPoint x="460" y="890.7999877929688" as="targetPoint" />
          </mxGeometry>
        </mxCell>
        <mxCell id="LllymJ43TnrRqsEVC5Kz-7" value="" style="endArrow=none;dashed=1;html=1;rounded=0;" parent="1" source="AN60eJWAK5SgZAsSh-RL-13" target="AN60eJWAK5SgZAsSh-RL-38" edge="1">
          <mxGeometry width="50" height="50" relative="1" as="geometry">
            <mxPoint x="380" y="310" as="sourcePoint" />
            <mxPoint x="430" y="260" as="targetPoint" />
            <Array as="points">
              <mxPoint x="370" y="265" />
            </Array>
          </mxGeometry>
        </mxCell>
        <mxCell id="LllymJ43TnrRqsEVC5Kz-11" value="&lt;font style=&quot;vertical-align: inherit;&quot;&gt;&lt;font style=&quot;vertical-align: inherit;&quot;&gt;&lt;font style=&quot;vertical-align: inherit;&quot;&gt;&lt;font style=&quot;vertical-align: inherit;&quot;&gt;4.1.讀取資料()&lt;/font&gt;&lt;/font&gt;&lt;/font&gt;&lt;/font&gt;" style="html=1;verticalAlign=bottom;labelBackgroundColor=none;endArrow=open;endFill=0;dashed=1;rounded=0;entryX=0;entryY=0.786;entryDx=0;entryDy=0;entryPerimeter=0;" parent="1" source="AN60eJWAK5SgZAsSh-RL-12" target="AN60eJWAK5SgZAsSh-RL-38" edge="1">
          <mxGeometry x="-0.0001" width="160" relative="1" as="geometry">
            <mxPoint x="726" y="331" as="sourcePoint" />
            <mxPoint x="810" y="320" as="targetPoint" />
            <mxPoint as="offset" />
          </mxGeometry>
        </mxCell>
        <mxCell id="LllymJ43TnrRqsEVC5Kz-13" value="" style="endArrow=none;startArrow=none;endFill=0;startFill=0;endSize=8;html=1;verticalAlign=bottom;labelBackgroundColor=none;strokeWidth=1;rounded=0;dashed=1;" parent="1" source="AN60eJWAK5SgZAsSh-RL-7" target="AN60eJWAK5SgZAsSh-RL-12" edge="1">
          <mxGeometry width="160" relative="1" as="geometry">
            <mxPoint x="460" y="90" as="sourcePoint" />
            <mxPoint x="460" y="510" as="targetPoint" />
          </mxGeometry>
        </mxCell>
        <mxCell id="AN60eJWAK5SgZAsSh-RL-12" value="" style="html=1;points=[[0,0,0,0,5],[0,1,0,0,-5],[1,0,0,0,5],[1,1,0,0,-5]];perimeter=orthogonalPerimeter;outlineConnect=0;targetShapes=umlLifeline;portConstraint=eastwest;newEdgeStyle={&quot;curved&quot;:0,&quot;rounded&quot;:0};fillColor=#808080;" parent="1" vertex="1">
          <mxGeometry x="455" y="200" width="10" height="170" as="geometry" />
        </mxCell>
        <mxCell id="AN60eJWAK5SgZAsSh-RL-17" value="&lt;font style=&quot;vertical-align: inherit;&quot;&gt;&lt;font style=&quot;vertical-align: inherit;&quot;&gt;&lt;font style=&quot;vertical-align: inherit;&quot;&gt;&lt;font style=&quot;vertical-align: inherit;&quot;&gt;&lt;font style=&quot;vertical-align: inherit;&quot;&gt;&lt;font style=&quot;vertical-align: inherit;&quot;&gt;&lt;font style=&quot;vertical-align: inherit;&quot;&gt;&lt;font style=&quot;vertical-align: inherit;&quot;&gt;&lt;font style=&quot;vertical-align: inherit;&quot;&gt;&lt;font style=&quot;vertical-align: inherit;&quot;&gt;2.查看月曆()&lt;/font&gt;&lt;/font&gt;&lt;/font&gt;&lt;/font&gt;&lt;/font&gt;&lt;/font&gt;&lt;/font&gt;&lt;/font&gt;&lt;/font&gt;&lt;/font&gt;" style="html=1;verticalAlign=bottom;labelBackgroundColor=none;endArrow=open;endFill=0;rounded=0;exitX=0.004;exitY=0.252;exitDx=0;exitDy=0;exitPerimeter=0;" parent="1" source="AN60eJWAK5SgZAsSh-RL-14" target="AN60eJWAK5SgZAsSh-RL-12" edge="1">
          <mxGeometry x="-0.0004" width="160" relative="1" as="geometry">
            <mxPoint x="275" y="195.89999999999998" as="sourcePoint" />
            <mxPoint x="482.48000000000025" y="200.0000000000001" as="targetPoint" />
            <mxPoint as="offset" />
            <Array as="points">
              <mxPoint x="440" y="200" />
            </Array>
          </mxGeometry>
        </mxCell>
        <mxCell id="09P6XsZRbIy3q7f4OAyT-3" value="" style="endArrow=open;startArrow=none;endFill=0;startFill=0;endSize=8;html=1;verticalAlign=bottom;labelBackgroundColor=none;strokeWidth=1;rounded=0;" parent="1" edge="1">
          <mxGeometry width="160" relative="1" as="geometry">
            <mxPoint x="80" y="450" as="sourcePoint" />
            <mxPoint x="245" y="450" as="targetPoint" />
          </mxGeometry>
        </mxCell>
        <mxCell id="09P6XsZRbIy3q7f4OAyT-4" value="&lt;font style=&quot;vertical-align: inherit;&quot;&gt;&lt;font style=&quot;vertical-align: inherit;&quot;&gt;&lt;font style=&quot;vertical-align: inherit;&quot;&gt;&lt;font style=&quot;vertical-align: inherit;&quot;&gt;&lt;font style=&quot;vertical-align: inherit;&quot;&gt;&lt;font style=&quot;vertical-align: inherit;&quot;&gt;6.選擇查看行程()&lt;/font&gt;&lt;/font&gt;&lt;/font&gt;&lt;/font&gt;&lt;/font&gt;&lt;/font&gt;" style="edgeLabel;html=1;align=center;verticalAlign=middle;resizable=0;points=[];" parent="09P6XsZRbIy3q7f4OAyT-3" vertex="1" connectable="0">
          <mxGeometry x="0.084" y="9" relative="1" as="geometry">
            <mxPoint x="1" as="offset" />
          </mxGeometry>
        </mxCell>
        <mxCell id="09P6XsZRbIy3q7f4OAyT-5" value="alt" style="shape=umlFrame;whiteSpace=wrap;html=1;pointerEvents=0;recursiveResize=0;container=1;collapsible=0;width=170;" parent="1" vertex="1">
          <mxGeometry x="250" y="420" width="680" height="360" as="geometry" />
        </mxCell>
        <mxCell id="09P6XsZRbIy3q7f4OAyT-6" value="&lt;font style=&quot;vertical-align: inherit;&quot;&gt;&lt;font style=&quot;vertical-align: inherit;&quot;&gt;[IF沒有行程]&lt;/font&gt;&lt;/font&gt;" style="text;html=1;" parent="09P6XsZRbIy3q7f4OAyT-5" vertex="1">
          <mxGeometry width="60" height="30" relative="1" as="geometry">
            <mxPoint x="10" y="30" as="offset" />
          </mxGeometry>
        </mxCell>
        <mxCell id="09P6XsZRbIy3q7f4OAyT-13" value="" style="html=1;verticalAlign=bottom;labelBackgroundColor=none;endArrow=open;endFill=0;rounded=0;" parent="09P6XsZRbIy3q7f4OAyT-5" edge="1">
          <mxGeometry width="160" relative="1" as="geometry">
            <mxPoint y="80" as="sourcePoint" />
            <mxPoint x="210" y="80" as="targetPoint" />
            <Array as="points">
              <mxPoint x="95" y="80" />
            </Array>
          </mxGeometry>
        </mxCell>
        <mxCell id="09P6XsZRbIy3q7f4OAyT-14" value="7.顯示此時段行程是空的()" style="edgeLabel;html=1;align=center;verticalAlign=middle;resizable=0;points=[];" parent="09P6XsZRbIy3q7f4OAyT-13" vertex="1" connectable="0">
          <mxGeometry x="0.1105" y="1" relative="1" as="geometry">
            <mxPoint x="-8" y="-9" as="offset" />
          </mxGeometry>
        </mxCell>
        <mxCell id="09P6XsZRbIy3q7f4OAyT-15" value="" style="html=1;verticalAlign=bottom;labelBackgroundColor=none;endArrow=open;endFill=0;rounded=0;" parent="09P6XsZRbIy3q7f4OAyT-5" edge="1">
          <mxGeometry width="160" relative="1" as="geometry">
            <mxPoint x="210" y="100" as="sourcePoint" />
            <mxPoint x="450" y="100" as="targetPoint" />
            <Array as="points">
              <mxPoint x="305" y="100" />
            </Array>
          </mxGeometry>
        </mxCell>
        <mxCell id="09P6XsZRbIy3q7f4OAyT-16" value="8.輸入行程資料()" style="edgeLabel;html=1;align=center;verticalAlign=middle;resizable=0;points=[];" parent="09P6XsZRbIy3q7f4OAyT-15" vertex="1" connectable="0">
          <mxGeometry x="0.1105" y="1" relative="1" as="geometry">
            <mxPoint x="-8" y="-9" as="offset" />
          </mxGeometry>
        </mxCell>
        <mxCell id="09P6XsZRbIy3q7f4OAyT-24" value="&lt;font style=&quot;vertical-align: inherit;&quot;&gt;&lt;font style=&quot;vertical-align: inherit;&quot;&gt;&lt;font style=&quot;vertical-align: inherit;&quot;&gt;&lt;font style=&quot;vertical-align: inherit;&quot;&gt;10.顯示資料()&lt;/font&gt;&lt;/font&gt;&lt;/font&gt;&lt;/font&gt;" style="html=1;verticalAlign=bottom;labelBackgroundColor=none;endArrow=open;endFill=0;dashed=1;rounded=0;" parent="09P6XsZRbIy3q7f4OAyT-5" source="09P6XsZRbIy3q7f4OAyT-35" edge="1">
          <mxGeometry x="-0.0001" width="160" relative="1" as="geometry">
            <mxPoint x="661.51" y="170" as="sourcePoint" />
            <mxPoint x="210" y="170" as="targetPoint" />
            <mxPoint as="offset" />
          </mxGeometry>
        </mxCell>
        <mxCell id="09P6XsZRbIy3q7f4OAyT-31" value="" style="html=1;verticalAlign=bottom;labelBackgroundColor=none;endArrow=open;endFill=0;rounded=0;" parent="09P6XsZRbIy3q7f4OAyT-5" edge="1">
          <mxGeometry width="160" relative="1" as="geometry">
            <mxPoint x="450" y="130" as="sourcePoint" />
            <mxPoint x="660" y="130" as="targetPoint" />
            <Array as="points">
              <mxPoint x="525" y="130" />
            </Array>
          </mxGeometry>
        </mxCell>
        <mxCell id="09P6XsZRbIy3q7f4OAyT-32" value="9.儲存資料()" style="edgeLabel;html=1;align=center;verticalAlign=middle;resizable=0;points=[];" parent="09P6XsZRbIy3q7f4OAyT-31" vertex="1" connectable="0">
          <mxGeometry x="0.1105" y="1" relative="1" as="geometry">
            <mxPoint x="-8" y="-9" as="offset" />
          </mxGeometry>
        </mxCell>
        <mxCell id="09P6XsZRbIy3q7f4OAyT-35" value="" style="html=1;points=[[0,0,0,0,5],[0,1,0,0,-5],[1,0,0,0,5],[1,1,0,0,-5]];perimeter=orthogonalPerimeter;outlineConnect=0;targetShapes=umlLifeline;portConstraint=eastwest;newEdgeStyle={&quot;curved&quot;:0,&quot;rounded&quot;:0};fillColor=#808080;" parent="09P6XsZRbIy3q7f4OAyT-5" vertex="1">
          <mxGeometry x="660" y="130" width="10" height="230" as="geometry" />
        </mxCell>
        <mxCell id="09P6XsZRbIy3q7f4OAyT-28" value="" style="endArrow=none;startArrow=none;endFill=0;startFill=0;endSize=8;html=1;verticalAlign=bottom;labelBackgroundColor=none;strokeWidth=1;rounded=0;dashed=1;" parent="09P6XsZRbIy3q7f4OAyT-5" edge="1">
          <mxGeometry width="160" relative="1" as="geometry">
            <mxPoint x="442.5" y="130" as="sourcePoint" />
            <mxPoint x="440" y="550" as="targetPoint" />
            <Array as="points">
              <mxPoint x="442.5" y="140" />
            </Array>
          </mxGeometry>
        </mxCell>
        <mxCell id="09P6XsZRbIy3q7f4OAyT-17" value="" style="html=1;points=[[0,0,0,0,5],[0,1,0,0,-5],[1,0,0,0,5],[1,1,0,0,-5]];perimeter=orthogonalPerimeter;outlineConnect=0;targetShapes=umlLifeline;portConstraint=eastwest;newEdgeStyle={&quot;curved&quot;:0,&quot;rounded&quot;:0};fillColor=#808080;" parent="09P6XsZRbIy3q7f4OAyT-5" vertex="1">
          <mxGeometry x="205" y="170" width="10" height="40" as="geometry" />
        </mxCell>
        <mxCell id="09P6XsZRbIy3q7f4OAyT-33" value="" style="html=1;points=[[0,0,0,0,5],[0,1,0,0,-5],[1,0,0,0,5],[1,1,0,0,-5]];perimeter=orthogonalPerimeter;outlineConnect=0;targetShapes=umlLifeline;portConstraint=eastwest;newEdgeStyle={&quot;curved&quot;:0,&quot;rounded&quot;:0};fillColor=#808080;" parent="09P6XsZRbIy3q7f4OAyT-5" vertex="1">
          <mxGeometry x="440" y="100" width="10" height="30" as="geometry" />
        </mxCell>
        <mxCell id="09P6XsZRbIy3q7f4OAyT-18" value="" style="html=1;points=[[0,0,0,0,5],[0,1,0,0,-5],[1,0,0,0,5],[1,1,0,0,-5]];perimeter=orthogonalPerimeter;outlineConnect=0;targetShapes=umlLifeline;portConstraint=eastwest;newEdgeStyle={&quot;curved&quot;:0,&quot;rounded&quot;:0};fillColor=#808080;" parent="09P6XsZRbIy3q7f4OAyT-5" vertex="1">
          <mxGeometry x="205" y="80" width="10" height="20" as="geometry" />
        </mxCell>
        <mxCell id="09P6XsZRbIy3q7f4OAyT-61" value="" style="html=1;points=[[0,0,0,0,5],[0,1,0,0,-5],[1,0,0,0,5],[1,1,0,0,-5]];perimeter=orthogonalPerimeter;outlineConnect=0;targetShapes=umlLifeline;portConstraint=eastwest;newEdgeStyle={&quot;curved&quot;:0,&quot;rounded&quot;:0};fillColor=#808080;" parent="09P6XsZRbIy3q7f4OAyT-5" vertex="1">
          <mxGeometry x="-4" y="30" width="10" height="330" as="geometry" />
        </mxCell>
        <mxCell id="09P6XsZRbIy3q7f4OAyT-64" value="&lt;font style=&quot;vertical-align: inherit;&quot;&gt;&lt;font style=&quot;vertical-align: inherit;&quot;&gt;&lt;font style=&quot;vertical-align: inherit;&quot;&gt;&lt;font style=&quot;vertical-align: inherit;&quot;&gt;11.顯示行程()&lt;/font&gt;&lt;/font&gt;&lt;/font&gt;&lt;/font&gt;" style="html=1;verticalAlign=bottom;labelBackgroundColor=none;endArrow=open;endFill=0;dashed=1;rounded=0;" parent="09P6XsZRbIy3q7f4OAyT-5" source="09P6XsZRbIy3q7f4OAyT-17" edge="1">
          <mxGeometry x="-0.0001" width="160" relative="1" as="geometry">
            <mxPoint x="126" y="210" as="sourcePoint" />
            <mxPoint x="6" y="210" as="targetPoint" />
            <mxPoint as="offset" />
          </mxGeometry>
        </mxCell>
        <mxCell id="09P6XsZRbIy3q7f4OAyT-65" value="&lt;font style=&quot;vertical-align: inherit;&quot;&gt;&lt;font style=&quot;vertical-align: inherit;&quot;&gt;[Else]&lt;/font&gt;&lt;/font&gt;" style="text;html=1;" parent="09P6XsZRbIy3q7f4OAyT-5" vertex="1">
          <mxGeometry x="6" y="230" width="60" height="30" as="geometry" />
        </mxCell>
        <mxCell id="09P6XsZRbIy3q7f4OAyT-67" value="" style="endArrow=none;dashed=1;html=1;rounded=0;entryX=1;entryY=0.639;entryDx=0;entryDy=0;entryPerimeter=0;" parent="09P6XsZRbIy3q7f4OAyT-5" target="09P6XsZRbIy3q7f4OAyT-5" edge="1">
          <mxGeometry width="50" height="50" relative="1" as="geometry">
            <mxPoint x="6" y="230" as="sourcePoint" />
            <mxPoint x="661" y="230" as="targetPoint" />
            <Array as="points">
              <mxPoint x="121" y="230" />
            </Array>
          </mxGeometry>
        </mxCell>
        <mxCell id="09P6XsZRbIy3q7f4OAyT-70" value="ref" style="shape=umlFrame;whiteSpace=wrap;html=1;pointerEvents=0;recursiveResize=0;container=1;collapsible=0;width=160;" parent="09P6XsZRbIy3q7f4OAyT-5" vertex="1">
          <mxGeometry x="6" y="250" width="654" height="110" as="geometry" />
        </mxCell>
        <mxCell id="09P6XsZRbIy3q7f4OAyT-71" value="維護日程" style="text;html=1;align=center;verticalAlign=middle;resizable=0;points=[];autosize=1;strokeColor=none;fillColor=none;" parent="09P6XsZRbIy3q7f4OAyT-70" vertex="1">
          <mxGeometry x="314" y="48" width="70" height="30" as="geometry" />
        </mxCell>
        <mxCell id="09P6XsZRbIy3q7f4OAyT-19" value="" style="endArrow=none;startArrow=none;endFill=0;startFill=0;endSize=8;html=1;verticalAlign=bottom;labelBackgroundColor=none;strokeWidth=1;rounded=0;dashed=1;" parent="1" source="AN60eJWAK5SgZAsSh-RL-12" target="09P6XsZRbIy3q7f4OAyT-18" edge="1">
          <mxGeometry width="160" relative="1" as="geometry">
            <mxPoint x="460" y="370" as="sourcePoint" />
            <mxPoint x="460" y="890.7999877929688" as="targetPoint" />
          </mxGeometry>
        </mxCell>
        <mxCell id="09P6XsZRbIy3q7f4OAyT-27" value="建立行程" style="ellipse;shape=umlControl;whiteSpace=wrap;html=1;" parent="1" vertex="1">
          <mxGeometry x="660" y="10" width="70" height="80" as="geometry" />
        </mxCell>
        <mxCell id="09P6XsZRbIy3q7f4OAyT-34" value="" style="endArrow=none;startArrow=none;endFill=0;startFill=0;endSize=8;html=1;verticalAlign=bottom;labelBackgroundColor=none;strokeWidth=1;rounded=0;dashed=1;" parent="1" source="09P6XsZRbIy3q7f4OAyT-27" target="09P6XsZRbIy3q7f4OAyT-33" edge="1">
          <mxGeometry width="160" relative="1" as="geometry">
            <mxPoint x="695" y="90" as="sourcePoint" />
            <mxPoint x="700" y="960" as="targetPoint" />
          </mxGeometry>
        </mxCell>
        <mxCell id="09P6XsZRbIy3q7f4OAyT-36" value="alt" style="shape=umlFrame;whiteSpace=wrap;html=1;pointerEvents=0;recursiveResize=0;container=1;collapsible=0;width=170;" parent="1" vertex="1">
          <mxGeometry x="-270" y="560" width="210" height="170" as="geometry" />
        </mxCell>
        <mxCell id="09P6XsZRbIy3q7f4OAyT-37" value="&lt;font style=&quot;vertical-align: inherit;&quot;&gt;&lt;font style=&quot;vertical-align: inherit;&quot;&gt;[IF選擇月曆]&lt;/font&gt;&lt;/font&gt;" style="text;html=1;" parent="09P6XsZRbIy3q7f4OAyT-36" vertex="1">
          <mxGeometry width="60" height="30" relative="1" as="geometry">
            <mxPoint x="10" y="30" as="offset" />
          </mxGeometry>
        </mxCell>
        <mxCell id="09P6XsZRbIy3q7f4OAyT-25" value="&lt;font style=&quot;vertical-align: inherit;&quot;&gt;&lt;font style=&quot;vertical-align: inherit;&quot;&gt;&lt;font style=&quot;vertical-align: inherit;&quot;&gt;&lt;font style=&quot;vertical-align: inherit;&quot;&gt;11.顯示月曆()&lt;/font&gt;&lt;/font&gt;&lt;/font&gt;&lt;/font&gt;" style="html=1;verticalAlign=bottom;labelBackgroundColor=none;endArrow=open;endFill=0;dashed=1;rounded=0;" parent="09P6XsZRbIy3q7f4OAyT-36" edge="1">
          <mxGeometry x="-0.0001" width="160" relative="1" as="geometry">
            <mxPoint x="210" y="80" as="sourcePoint" />
            <mxPoint y="80" as="targetPoint" />
            <mxPoint as="offset" />
          </mxGeometry>
        </mxCell>
        <mxCell id="09P6XsZRbIy3q7f4OAyT-59" value="" style="endArrow=none;dashed=1;html=1;rounded=0;exitX=1.002;exitY=0.595;exitDx=0;exitDy=0;exitPerimeter=0;" parent="09P6XsZRbIy3q7f4OAyT-36" edge="1">
          <mxGeometry width="50" height="50" relative="1" as="geometry">
            <mxPoint x="210.00000000000009" y="111.15000000000009" as="sourcePoint" />
            <mxPoint x="-0.42" y="110" as="targetPoint" />
            <Array as="points">
              <mxPoint x="-0.42" y="110" />
            </Array>
          </mxGeometry>
        </mxCell>
        <mxCell id="09P6XsZRbIy3q7f4OAyT-60" value="&lt;font style=&quot;vertical-align: inherit;&quot;&gt;&lt;font style=&quot;vertical-align: inherit;&quot;&gt;[IF選擇日曆]&lt;/font&gt;&lt;/font&gt;" style="text;html=1;" parent="09P6XsZRbIy3q7f4OAyT-36" vertex="1">
          <mxGeometry x="10" y="110" width="60" height="30" as="geometry" />
        </mxCell>
        <mxCell id="09P6XsZRbIy3q7f4OAyT-8" value="&lt;font style=&quot;vertical-align: inherit;&quot;&gt;&lt;font style=&quot;vertical-align: inherit;&quot;&gt;&lt;font style=&quot;vertical-align: inherit;&quot;&gt;&lt;font style=&quot;vertical-align: inherit;&quot;&gt;12.顯示日曆()&lt;/font&gt;&lt;/font&gt;&lt;/font&gt;&lt;/font&gt;" style="html=1;verticalAlign=bottom;labelBackgroundColor=none;endArrow=open;endFill=0;dashed=1;rounded=0;entryX=0;entryY=1;entryDx=0;entryDy=0;" parent="1" target="09P6XsZRbIy3q7f4OAyT-60" edge="1">
          <mxGeometry x="-0.0001" width="160" relative="1" as="geometry">
            <mxPoint x="-60" y="700" as="sourcePoint" />
            <mxPoint x="260" y="700" as="targetPoint" />
            <mxPoint as="offset" />
          </mxGeometry>
        </mxCell>
        <mxCell id="66iEsCTlqSTNozrRFSZ0-27" value="" style="edgeStyle=orthogonalEdgeStyle;rounded=0;orthogonalLoop=1;jettySize=auto;html=1;endArrow=none;endFill=0;dashed=1;dashPattern=1 1;" edge="1" parent="1" source="66iEsCTlqSTNozrRFSZ0-30" target="66iEsCTlqSTNozrRFSZ0-53">
          <mxGeometry relative="1" as="geometry">
            <mxPoint x="-2830" y="200.43" as="sourcePoint" />
            <mxPoint x="-2830" y="1462.43" as="targetPoint" />
            <Array as="points">
              <mxPoint x="-2830" y="451.43000000000006" />
              <mxPoint x="-2830" y="451.43000000000006" />
            </Array>
          </mxGeometry>
        </mxCell>
        <mxCell id="66iEsCTlqSTNozrRFSZ0-28" value="&lt;font style=&quot;vertical-align: inherit;&quot;&gt;&lt;font style=&quot;vertical-align: inherit;&quot;&gt;繁忙疏於管理的人&lt;/font&gt;&lt;/font&gt;" style="shape=umlActor;verticalLabelPosition=bottom;verticalAlign=top;html=1;outlineConnect=0;" vertex="1" parent="1">
          <mxGeometry x="-3060" y="140" width="30" height="60" as="geometry" />
        </mxCell>
        <mxCell id="66iEsCTlqSTNozrRFSZ0-29" value="" style="edgeStyle=orthogonalEdgeStyle;rounded=0;orthogonalLoop=1;jettySize=auto;html=1;endArrow=none;endFill=0;dashed=1;dashPattern=1 1;" edge="1" parent="1" source="66iEsCTlqSTNozrRFSZ0-53">
          <mxGeometry relative="1" as="geometry">
            <mxPoint x="-2830" y="1462.43" as="targetPoint" />
            <Array as="points">
              <mxPoint x="-2830" y="1037.43" />
              <mxPoint x="-2829" y="1037.43" />
            </Array>
          </mxGeometry>
        </mxCell>
        <mxCell id="66iEsCTlqSTNozrRFSZ0-30" value="使用者介面" style="rounded=0;whiteSpace=wrap;html=1;" vertex="1" parent="1">
          <mxGeometry x="-2890" y="140" width="120" height="60" as="geometry" />
        </mxCell>
        <mxCell id="66iEsCTlqSTNozrRFSZ0-31" value="顯示月曆" style="ellipse;shape=umlControl;whiteSpace=wrap;html=1;" vertex="1" parent="1">
          <mxGeometry x="-2665" y="130" width="70" height="80" as="geometry" />
        </mxCell>
        <mxCell id="66iEsCTlqSTNozrRFSZ0-32" value="建立" style="ellipse;shape=umlControl;whiteSpace=wrap;html=1;" vertex="1" parent="1">
          <mxGeometry x="-2200" y="130" width="70" height="80" as="geometry" />
        </mxCell>
        <mxCell id="66iEsCTlqSTNozrRFSZ0-33" value="" style="edgeStyle=orthogonalEdgeStyle;rounded=0;orthogonalLoop=1;jettySize=auto;html=1;endArrow=none;endFill=0;dashed=1;dashPattern=1 1;exitX=0.5;exitY=1.03;exitDx=0;exitDy=0;exitPerimeter=0;" edge="1" parent="1" source="66iEsCTlqSTNozrRFSZ0-32">
          <mxGeometry relative="1" as="geometry">
            <mxPoint x="-2165.5" y="200" as="sourcePoint" />
            <mxPoint x="-2165.5" y="1462" as="targetPoint" />
          </mxGeometry>
        </mxCell>
        <mxCell id="66iEsCTlqSTNozrRFSZ0-34" value="" style="edgeStyle=orthogonalEdgeStyle;rounded=0;orthogonalLoop=1;jettySize=auto;html=1;endArrow=none;endFill=0;dashed=1;dashPattern=1 1;" edge="1" parent="1" source="66iEsCTlqSTNozrRFSZ0-28">
          <mxGeometry relative="1" as="geometry">
            <mxPoint x="-3045" y="251.43" as="sourcePoint" />
            <mxPoint x="-3045.5" y="1443.43" as="targetPoint" />
          </mxGeometry>
        </mxCell>
        <mxCell id="66iEsCTlqSTNozrRFSZ0-35" value="資料庫" style="ellipse;shape=umlEntity;whiteSpace=wrap;html=1;" vertex="1" parent="1">
          <mxGeometry x="-1810" y="141.43" width="80" height="80" as="geometry" />
        </mxCell>
        <mxCell id="66iEsCTlqSTNozrRFSZ0-36" value="" style="edgeStyle=orthogonalEdgeStyle;rounded=0;orthogonalLoop=1;jettySize=auto;html=1;endArrow=none;endFill=0;dashed=1;dashPattern=1 1;exitX=0.5;exitY=1;exitDx=0;exitDy=0;" edge="1" parent="1" source="66iEsCTlqSTNozrRFSZ0-65">
          <mxGeometry relative="1" as="geometry">
            <mxPoint x="-1770" y="282.86" as="sourcePoint" />
            <mxPoint x="-1770.5" y="1473.43" as="targetPoint" />
          </mxGeometry>
        </mxCell>
        <mxCell id="66iEsCTlqSTNozrRFSZ0-37" value="&lt;font style=&quot;vertical-align: inherit;&quot;&gt;&lt;font style=&quot;vertical-align: inherit;&quot;&gt;&lt;font style=&quot;vertical-align: inherit;&quot;&gt;&lt;font style=&quot;vertical-align: inherit;&quot;&gt;1.查看月曆()&lt;/font&gt;&lt;/font&gt;&lt;/font&gt;&lt;/font&gt;" style="html=1;verticalAlign=bottom;labelBackgroundColor=none;endArrow=open;endFill=0;rounded=0;entryX=0;entryY=0;entryDx=0;entryDy=5;entryPerimeter=0;" edge="1" parent="1" target="66iEsCTlqSTNozrRFSZ0-38">
          <mxGeometry width="160" relative="1" as="geometry">
            <mxPoint x="-3040" y="266.43" as="sourcePoint" />
            <mxPoint x="-2830" y="261.43" as="targetPoint" />
          </mxGeometry>
        </mxCell>
        <mxCell id="66iEsCTlqSTNozrRFSZ0-38" value="" style="html=1;points=[[0,0,0,0,5],[0,1,0,0,-5],[1,0,0,0,5],[1,1,0,0,-5]];perimeter=orthogonalPerimeter;outlineConnect=0;targetShapes=umlLifeline;portConstraint=eastwest;newEdgeStyle={&quot;curved&quot;:0,&quot;rounded&quot;:0};fillColor=#808080;" vertex="1" parent="1">
          <mxGeometry x="-2835" y="261.43" width="10" height="140" as="geometry" />
        </mxCell>
        <mxCell id="66iEsCTlqSTNozrRFSZ0-39" value="&lt;font style=&quot;vertical-align: inherit;&quot;&gt;&lt;font style=&quot;vertical-align: inherit;&quot;&gt;&lt;font style=&quot;vertical-align: inherit;&quot;&gt;&lt;font style=&quot;vertical-align: inherit;&quot;&gt;2.顯示已有行程的日期()&lt;/font&gt;&lt;/font&gt;&lt;/font&gt;&lt;/font&gt;" style="html=1;verticalAlign=bottom;labelBackgroundColor=none;endArrow=open;endFill=0;rounded=0;" edge="1" parent="1" source="66iEsCTlqSTNozrRFSZ0-38" target="66iEsCTlqSTNozrRFSZ0-43">
          <mxGeometry x="-0.0019" width="160" relative="1" as="geometry">
            <mxPoint x="-2810" y="291.43" as="sourcePoint" />
            <mxPoint x="-2630" y="291.43" as="targetPoint" />
            <Array as="points">
              <mxPoint x="-2750" y="311.43000000000006" />
            </Array>
            <mxPoint as="offset" />
          </mxGeometry>
        </mxCell>
        <mxCell id="66iEsCTlqSTNozrRFSZ0-40" value="" style="edgeStyle=orthogonalEdgeStyle;rounded=0;orthogonalLoop=1;jettySize=auto;html=1;endArrow=none;endFill=0;dashed=1;dashPattern=1 1;entryX=0.428;entryY=-0.004;entryDx=0;entryDy=0;entryPerimeter=0;" edge="1" parent="1" source="66iEsCTlqSTNozrRFSZ0-31" target="66iEsCTlqSTNozrRFSZ0-43">
          <mxGeometry relative="1" as="geometry">
            <mxPoint x="-2630" y="210.43" as="sourcePoint" />
            <mxPoint x="-2630.5" y="1472" as="targetPoint" />
          </mxGeometry>
        </mxCell>
        <mxCell id="66iEsCTlqSTNozrRFSZ0-41" style="edgeStyle=orthogonalEdgeStyle;rounded=0;orthogonalLoop=1;jettySize=auto;html=1;curved=0;endArrow=openThin;endFill=0;entryX=0;entryY=0;entryDx=0;entryDy=5;entryPerimeter=0;" edge="1" parent="1" source="66iEsCTlqSTNozrRFSZ0-43" target="66iEsCTlqSTNozrRFSZ0-48">
          <mxGeometry relative="1" as="geometry">
            <mxPoint x="-1770" y="326.43000000000006" as="targetPoint" />
            <Array as="points">
              <mxPoint x="-2550" y="326.43000000000006" />
              <mxPoint x="-2550" y="326.43000000000006" />
            </Array>
          </mxGeometry>
        </mxCell>
        <mxCell id="66iEsCTlqSTNozrRFSZ0-42" value="3.讀取當月行程()" style="edgeLabel;html=1;align=center;verticalAlign=middle;resizable=0;points=[];" vertex="1" connectable="0" parent="66iEsCTlqSTNozrRFSZ0-41">
          <mxGeometry x="-0.2427" y="-3" relative="1" as="geometry">
            <mxPoint x="73" y="-18" as="offset" />
          </mxGeometry>
        </mxCell>
        <mxCell id="66iEsCTlqSTNozrRFSZ0-43" value="" style="html=1;points=[[0,0,0,0,5],[0,1,0,0,-5],[1,0,0,0,5],[1,1,0,0,-5]];perimeter=orthogonalPerimeter;outlineConnect=0;targetShapes=umlLifeline;portConstraint=eastwest;newEdgeStyle={&quot;curved&quot;:0,&quot;rounded&quot;:0};fillColor=#808080;" vertex="1" parent="1">
          <mxGeometry x="-2635" y="301.43" width="10" height="100" as="geometry" />
        </mxCell>
        <mxCell id="66iEsCTlqSTNozrRFSZ0-44" value="" style="edgeStyle=orthogonalEdgeStyle;rounded=0;orthogonalLoop=1;jettySize=auto;html=1;endArrow=none;endFill=0;dashed=1;dashPattern=1 1;" edge="1" parent="1" source="66iEsCTlqSTNozrRFSZ0-43">
          <mxGeometry relative="1" as="geometry">
            <mxPoint x="-2630" y="351.43000000000006" as="sourcePoint" />
            <mxPoint x="-2630.49" y="1584.43" as="targetPoint" />
            <Array as="points">
              <mxPoint x="-2630" y="993.4300000000001" />
            </Array>
          </mxGeometry>
        </mxCell>
        <mxCell id="66iEsCTlqSTNozrRFSZ0-45" value="" style="edgeStyle=orthogonalEdgeStyle;rounded=0;orthogonalLoop=1;jettySize=auto;html=1;endArrow=none;endFill=0;dashed=1;dashPattern=1 1;exitX=0.5;exitY=1;exitDx=0;exitDy=0;entryX=1;entryY=0;entryDx=0;entryDy=5;entryPerimeter=0;" edge="1" parent="1" source="66iEsCTlqSTNozrRFSZ0-35" target="66iEsCTlqSTNozrRFSZ0-48">
          <mxGeometry relative="1" as="geometry">
            <mxPoint x="-1770" y="221.43" as="sourcePoint" />
            <mxPoint x="-1770" y="351.43000000000006" as="targetPoint" />
            <Array as="points">
              <mxPoint x="-1770" y="366.43000000000006" />
            </Array>
          </mxGeometry>
        </mxCell>
        <mxCell id="66iEsCTlqSTNozrRFSZ0-46" style="edgeStyle=orthogonalEdgeStyle;rounded=0;orthogonalLoop=1;jettySize=auto;html=1;curved=0;endArrow=openThin;endFill=0;strokeWidth=2;dashed=1;dashPattern=1 4;" edge="1" parent="1" source="66iEsCTlqSTNozrRFSZ0-48">
          <mxGeometry relative="1" as="geometry">
            <mxPoint x="-2625" y="381.43000000000006" as="targetPoint" />
            <mxPoint x="-1774.9999999999995" y="381.43000000000006" as="sourcePoint" />
            <Array as="points">
              <mxPoint x="-2510" y="381.43000000000006" />
              <mxPoint x="-2510" y="381.43000000000006" />
            </Array>
          </mxGeometry>
        </mxCell>
        <mxCell id="66iEsCTlqSTNozrRFSZ0-47" value="4.:" style="edgeLabel;html=1;align=center;verticalAlign=middle;resizable=0;points=[];" vertex="1" connectable="0" parent="66iEsCTlqSTNozrRFSZ0-46">
          <mxGeometry x="-0.7358" y="3" relative="1" as="geometry">
            <mxPoint x="-343" y="-13" as="offset" />
          </mxGeometry>
        </mxCell>
        <mxCell id="66iEsCTlqSTNozrRFSZ0-48" value="" style="html=1;points=[[0,0,0,0,5],[0,1,0,0,-5],[1,0,0,0,5],[1,1,0,0,-5]];perimeter=orthogonalPerimeter;outlineConnect=0;targetShapes=umlLifeline;portConstraint=eastwest;newEdgeStyle={&quot;curved&quot;:0,&quot;rounded&quot;:0};fillColor=#808080;" vertex="1" parent="1">
          <mxGeometry x="-1775" y="321.43000000000006" width="10" height="70" as="geometry" />
        </mxCell>
        <mxCell id="66iEsCTlqSTNozrRFSZ0-49" style="edgeStyle=orthogonalEdgeStyle;rounded=0;orthogonalLoop=1;jettySize=auto;html=1;curved=0;entryX=1;entryY=1;entryDx=0;entryDy=-5;entryPerimeter=0;endArrow=openThin;endFill=0;dashed=1;dashPattern=1 4;strokeWidth=2;exitX=0;exitY=1;exitDx=0;exitDy=-5;exitPerimeter=0;" edge="1" parent="1" source="66iEsCTlqSTNozrRFSZ0-43" target="66iEsCTlqSTNozrRFSZ0-38">
          <mxGeometry relative="1" as="geometry">
            <mxPoint x="-2610" y="396.43000000000006" as="targetPoint" />
            <mxPoint x="-2748.620689655172" y="381.43000000000006" as="sourcePoint" />
          </mxGeometry>
        </mxCell>
        <mxCell id="66iEsCTlqSTNozrRFSZ0-50" value="5.反紅已有行程()" style="edgeLabel;html=1;align=center;verticalAlign=middle;resizable=0;points=[];" vertex="1" connectable="0" parent="66iEsCTlqSTNozrRFSZ0-49">
          <mxGeometry x="-0.0021" y="-1" relative="1" as="geometry">
            <mxPoint x="-31" y="-14" as="offset" />
          </mxGeometry>
        </mxCell>
        <mxCell id="66iEsCTlqSTNozrRFSZ0-51" style="edgeStyle=orthogonalEdgeStyle;rounded=0;orthogonalLoop=1;jettySize=auto;html=1;endArrow=none;endFill=0;dashed=1;dashPattern=1 1;" edge="1" parent="1" source="66iEsCTlqSTNozrRFSZ0-52">
          <mxGeometry relative="1" as="geometry">
            <mxPoint x="-2410" y="1592.1196551724138" as="targetPoint" />
            <Array as="points">
              <mxPoint x="-2415" y="1592.43" />
            </Array>
          </mxGeometry>
        </mxCell>
        <mxCell id="66iEsCTlqSTNozrRFSZ0-52" value="顯示日程" style="ellipse;shape=umlControl;whiteSpace=wrap;html=1;" vertex="1" parent="1">
          <mxGeometry x="-2450" y="130" width="70" height="80" as="geometry" />
        </mxCell>
        <mxCell id="66iEsCTlqSTNozrRFSZ0-53" value="" style="html=1;points=[[0,0,0,0,5],[0,1,0,0,-5],[1,0,0,0,5],[1,1,0,0,-5]];perimeter=orthogonalPerimeter;outlineConnect=0;targetShapes=umlLifeline;portConstraint=eastwest;newEdgeStyle={&quot;curved&quot;:0,&quot;rounded&quot;:0};fillColor=#808080;" vertex="1" parent="1">
          <mxGeometry x="-2835" y="471.43000000000006" width="10" height="140" as="geometry" />
        </mxCell>
        <mxCell id="66iEsCTlqSTNozrRFSZ0-54" value="&lt;font style=&quot;vertical-align: inherit;&quot;&gt;&lt;font style=&quot;vertical-align: inherit;&quot;&gt;alt&lt;/font&gt;&lt;/font&gt;" style="shape=umlFrame;whiteSpace=wrap;html=1;pointerEvents=0;recursiveResize=0;container=1;collapsible=0;width=170;" vertex="1" parent="1">
          <mxGeometry x="-3090" y="421.43000000000006" width="1350" height="240" as="geometry" />
        </mxCell>
        <mxCell id="66iEsCTlqSTNozrRFSZ0-55" value="&lt;font style=&quot;vertical-align: inherit;&quot;&gt;&lt;font style=&quot;vertical-align: inherit;&quot;&gt;&lt;font style=&quot;vertical-align: inherit;&quot;&gt;&lt;font style=&quot;vertical-align: inherit;&quot;&gt;[IF查看日程]&lt;/font&gt;&lt;/font&gt;&lt;/font&gt;&lt;/font&gt;" style="text;html=1;" vertex="1" parent="66iEsCTlqSTNozrRFSZ0-54">
          <mxGeometry width="100" height="20" relative="1" as="geometry">
            <mxPoint x="185" as="offset" />
          </mxGeometry>
        </mxCell>
        <mxCell id="66iEsCTlqSTNozrRFSZ0-56" value="" style="html=1;points=[[0,0,0,0,5],[0,1,0,0,-5],[1,0,0,0,5],[1,1,0,0,-5]];perimeter=orthogonalPerimeter;outlineConnect=0;targetShapes=umlLifeline;portConstraint=eastwest;newEdgeStyle={&quot;curved&quot;:0,&quot;rounded&quot;:0};fillColor=#808080;" vertex="1" parent="66iEsCTlqSTNozrRFSZ0-54">
          <mxGeometry x="670" y="80" width="10" height="110" as="geometry" />
        </mxCell>
        <mxCell id="66iEsCTlqSTNozrRFSZ0-57" value="&lt;font style=&quot;vertical-align: inherit;&quot;&gt;&lt;font style=&quot;vertical-align: inherit;&quot;&gt;&lt;font style=&quot;vertical-align: inherit;&quot;&gt;&lt;font style=&quot;vertical-align: inherit;&quot;&gt;7.點選要查看的日期&lt;span style=&quot;color: rgba(0, 0, 0, 0); font-family: monospace; font-size: 0px; text-align: start;&quot;&gt;%3CmxGraphModel%3E%3Croot%3E%3CmxCell%20id%3D%220%22%2F%3E%3CmxCell%20id%3D%221%22%20parent%3D%220%22%2F%3E%3CmxCell%20id%3D%222%22%20value%3D%22%26lt%3Bfont%20style%3D%26quot%3Bvertical-align%3A%20inherit%3B%26quot%3B%26gt%3B%26lt%3Bfont%20style%3D%26quot%3Bvertical-align%3A%20inherit%3B%26quot%3B%26gt%3B%26lt%3Bfont%20style%3D%26quot%3Bvertical-align%3A%20inherit%3B%26quot%3B%26gt%3B%26lt%3Bfont%20style%3D%26quot%3Bvertical-align%3A%20inherit%3B%26quot%3B%26gt%3B5.%E6%9F%A5%E7%9C%8B%E6%97%A5%E7%A8%8B()%26lt%3B%2Ffont%26gt%3B%26lt%3B%2Ffont%26gt%3B%26lt%3B%2Ffont%26gt%3B%26lt%3B%2Ffont%26gt%3B%22%20style%3D%22html%3D1%3BverticalAlign%3Dbottom%3BlabelBackgroundColor%3Dnone%3BendArrow%3Dopen%3BendFill%3D0%3Brounded%3D0%3B%22%20edge%3D%221%22%20parent%3D%221%22%3E%3CmxGeometry%20x%3D%220.0043%22%20width%3D%22160%22%20relative%3D%221%22%20as%3D%22geometry%22%3E%3CmxPoint%20x%3D%22325%22%20y%3D%22380%22%20as%3D%22sourcePoint%22%2F%3E%3CmxPoint%20x%3D%22580%22%20y%3D%22380%22%20as%3D%22targetPoint%22%2F%3E%3CmxPoint%20as%3D%22offset%22%2F%3E%3C%2FmxGeometry%3E%3C%2FmxCell%3E%3C%2Froot%3E%3C%2FmxGraphModel%3E&lt;/span&gt;()&lt;/font&gt;&lt;/font&gt;&lt;/font&gt;&lt;/font&gt;" style="html=1;verticalAlign=bottom;labelBackgroundColor=none;endArrow=open;endFill=0;rounded=0;" edge="1" parent="66iEsCTlqSTNozrRFSZ0-54" target="66iEsCTlqSTNozrRFSZ0-53">
          <mxGeometry x="0.12" y="-30" width="160" relative="1" as="geometry">
            <mxPoint x="130" y="60" as="sourcePoint" />
            <mxPoint x="255" y="60" as="targetPoint" />
            <mxPoint as="offset" />
          </mxGeometry>
        </mxCell>
        <mxCell id="66iEsCTlqSTNozrRFSZ0-58" value="&lt;font style=&quot;vertical-align: inherit;&quot;&gt;&lt;font style=&quot;vertical-align: inherit;&quot;&gt;&lt;font style=&quot;vertical-align: inherit;&quot;&gt;&lt;font style=&quot;vertical-align: inherit;&quot;&gt;6.查看已反紅日程的月曆()&lt;/font&gt;&lt;/font&gt;&lt;/font&gt;&lt;/font&gt;" style="html=1;verticalAlign=bottom;labelBackgroundColor=none;endArrow=open;endFill=0;rounded=0;" edge="1" parent="66iEsCTlqSTNozrRFSZ0-54">
          <mxGeometry width="160" relative="1" as="geometry">
            <mxPoint x="50" y="60" as="sourcePoint" />
            <mxPoint x="140" y="60" as="targetPoint" />
          </mxGeometry>
        </mxCell>
        <mxCell id="66iEsCTlqSTNozrRFSZ0-59" style="edgeStyle=orthogonalEdgeStyle;rounded=0;orthogonalLoop=1;jettySize=auto;html=1;curved=0;strokeWidth=2;dashed=1;dashPattern=1 4;endArrow=openThin;endFill=0;" edge="1" parent="66iEsCTlqSTNozrRFSZ0-54">
          <mxGeometry relative="1" as="geometry">
            <mxPoint x="670" y="180" as="sourcePoint" />
            <mxPoint x="265" y="180" as="targetPoint" />
            <Array as="points">
              <mxPoint x="630" y="180" />
              <mxPoint x="630" y="180" />
            </Array>
          </mxGeometry>
        </mxCell>
        <mxCell id="66iEsCTlqSTNozrRFSZ0-60" value="11.:" style="edgeLabel;html=1;align=center;verticalAlign=middle;resizable=0;points=[];" vertex="1" connectable="0" parent="66iEsCTlqSTNozrRFSZ0-59">
          <mxGeometry x="-0.07" y="-1" relative="1" as="geometry">
            <mxPoint y="-9" as="offset" />
          </mxGeometry>
        </mxCell>
        <mxCell id="66iEsCTlqSTNozrRFSZ0-61" value="&lt;font style=&quot;vertical-align: inherit;&quot;&gt;&lt;font style=&quot;vertical-align: inherit;&quot;&gt;&lt;font style=&quot;vertical-align: inherit;&quot;&gt;&lt;font style=&quot;vertical-align: inherit;&quot;&gt;8.顯示已有行程&lt;span style=&quot;color: rgba(0, 0, 0, 0); font-family: monospace; font-size: 0px; text-align: start;&quot;&gt;%3CmxGraphModel%3E%3Croot%3E%3CmxCell%20id%3D%220%22%2F%3E%3CmxCell%20id%3D%221%22%20parent%3D%220%22%2F%3E%3CmxCell%20id%3D%222%22%20value%3D%22%26lt%3Bfont%20style%3D%26quot%3Bvertical-align%3A%20inherit%3B%26quot%3B%26gt%3B%26lt%3Bfont%20style%3D%26quot%3Bvertical-align%3A%20inherit%3B%26quot%3B%26gt%3B%26lt%3Bfont%20style%3D%26quot%3Bvertical-align%3A%20inherit%3B%26quot%3B%26gt%3B%26lt%3Bfont%20style%3D%26quot%3Bvertical-align%3A%20inherit%3B%26quot%3B%26gt%3B5.%E6%9F%A5%E7%9C%8B%E6%97%A5%E7%A8%8B()%26lt%3B%2Ffont%26gt%3B%26lt%3B%2Ffont%26gt%3B%26lt%3B%2Ffont%26gt%3B%26lt%3B%2Ffont%26gt%3B%22%20style%3D%22html%3D1%3BverticalAlign%3Dbottom%3BlabelBackgroundColor%3Dnone%3BendArrow%3Dopen%3BendFill%3D0%3Brounded%3D0%3B%22%20edge%3D%221%22%20parent%3D%221%22%3E%3CmxGeometry%20x%3D%220.0043%22%20width%3D%22160%22%20relative%3D%221%22%20as%3D%22geometry%22%3E%3CmxPoint%20x%3D%22325%22%20y%3D%22380%22%20as%3D%22sourcePoint%22%2F%3E%3CmxPoint%20x%3D%22580%22%20y%3D%22380%22%20as%3D%22targetPoint%22%2F%3E%3CmxPoint%20as%3D%22offset%22%2F%3E%3C%2FmxGeometry%3E%3C%2FmxCell%3E%3C%2Froot%3E%3C%2FmxGraphModel%3E&lt;/span&gt;()&lt;/font&gt;&lt;/font&gt;&lt;/font&gt;&lt;/font&gt;" style="html=1;verticalAlign=bottom;labelBackgroundColor=none;endArrow=open;endFill=0;rounded=0;entryX=0;entryY=0;entryDx=0;entryDy=5;entryPerimeter=0;" edge="1" parent="1" source="66iEsCTlqSTNozrRFSZ0-53" target="66iEsCTlqSTNozrRFSZ0-56">
          <mxGeometry x="0.008" width="160" relative="1" as="geometry">
            <mxPoint x="-2825" y="511.43000000000006" as="sourcePoint" />
            <mxPoint x="-2635" y="511.43000000000006" as="targetPoint" />
            <mxPoint as="offset" />
          </mxGeometry>
        </mxCell>
        <mxCell id="66iEsCTlqSTNozrRFSZ0-62" value="" style="edgeStyle=orthogonalEdgeStyle;rounded=0;orthogonalLoop=1;jettySize=auto;html=1;endArrow=none;endFill=0;dashed=1;dashPattern=1 1;exitX=0.5;exitY=1;exitDx=0;exitDy=0;" edge="1" parent="1" source="66iEsCTlqSTNozrRFSZ0-48" target="66iEsCTlqSTNozrRFSZ0-65">
          <mxGeometry relative="1" as="geometry">
            <mxPoint x="-1770" y="391.43000000000006" as="sourcePoint" />
            <mxPoint x="-1770.5" y="1473.43" as="targetPoint" />
            <Array as="points">
              <mxPoint x="-1770" y="461.43000000000006" />
              <mxPoint x="-1770" y="461.43000000000006" />
            </Array>
          </mxGeometry>
        </mxCell>
        <mxCell id="66iEsCTlqSTNozrRFSZ0-63" style="edgeStyle=orthogonalEdgeStyle;rounded=0;orthogonalLoop=1;jettySize=auto;html=1;curved=0;dashed=1;dashPattern=1 4;strokeWidth=2;endArrow=openThin;endFill=0;" edge="1" parent="1" source="66iEsCTlqSTNozrRFSZ0-65" target="66iEsCTlqSTNozrRFSZ0-56">
          <mxGeometry relative="1" as="geometry">
            <Array as="points">
              <mxPoint x="-1940" y="581.4300000000001" />
              <mxPoint x="-1940" y="581.4300000000001" />
            </Array>
          </mxGeometry>
        </mxCell>
        <mxCell id="66iEsCTlqSTNozrRFSZ0-64" value="10.:" style="edgeLabel;html=1;align=center;verticalAlign=middle;resizable=0;points=[];" vertex="1" connectable="0" parent="66iEsCTlqSTNozrRFSZ0-63">
          <mxGeometry x="0.0787" y="-2" relative="1" as="geometry">
            <mxPoint y="-8" as="offset" />
          </mxGeometry>
        </mxCell>
        <mxCell id="66iEsCTlqSTNozrRFSZ0-65" value="" style="html=1;points=[[0,0,0,0,5],[0,1,0,0,-5],[1,0,0,0,5],[1,1,0,0,-5]];perimeter=orthogonalPerimeter;outlineConnect=0;targetShapes=umlLifeline;portConstraint=eastwest;newEdgeStyle={&quot;curved&quot;:0,&quot;rounded&quot;:0};fillColor=#808080;" vertex="1" parent="1">
          <mxGeometry x="-1775" y="491.43000000000006" width="10" height="110" as="geometry" />
        </mxCell>
        <mxCell id="66iEsCTlqSTNozrRFSZ0-66" style="edgeStyle=orthogonalEdgeStyle;rounded=0;orthogonalLoop=1;jettySize=auto;html=1;curved=0;endArrow=openThin;endFill=0;" edge="1" parent="1" source="66iEsCTlqSTNozrRFSZ0-56" target="66iEsCTlqSTNozrRFSZ0-65">
          <mxGeometry relative="1" as="geometry">
            <Array as="points">
              <mxPoint x="-2060" y="531.4300000000001" />
              <mxPoint x="-2060" y="531.4300000000001" />
            </Array>
          </mxGeometry>
        </mxCell>
        <mxCell id="66iEsCTlqSTNozrRFSZ0-67" value="9.讀取點選日期行程()" style="edgeLabel;html=1;align=center;verticalAlign=middle;resizable=0;points=[];" vertex="1" connectable="0" parent="66iEsCTlqSTNozrRFSZ0-66">
          <mxGeometry x="-0.1575" relative="1" as="geometry">
            <mxPoint x="43" y="-10" as="offset" />
          </mxGeometry>
        </mxCell>
      </root>
    </mxGraphModel>
  </diagram>
</mxfile>
